<?xml version="1.0" encoding="UTF-8"?>
<svg id="Capa_1" data-name="Capa 1" xmlns="http://www.w3.org/2000/svg" xmlns:xlink="http://www.w3.org/1999/xlink" viewBox="0 0 50 50">
  <defs>
    <style>
      .cls-1 {
        fill: url(#Degradado_sin_nombre_10);
      }
    </style>
    <linearGradient id="Degradado_sin_nombre_10" data-name="Degradado sin nombre 10" x1="2.14" y1="25.03" x2="48.51" y2="25.03" gradientUnits="userSpaceOnUse">
      <stop offset="0" stop-color="#f5c230"/>
      <stop offset="0" stop-color="#ecc440"/>
      <stop offset=".32" stop-color="#fffa8a"/>
      <stop offset=".68" stop-color="#ddac17"/>
      <stop offset="1" stop-color="#ffff95"/>
    </linearGradient>
  </defs>
  <path class="cls-1" d="M24.43,1.88c2.9-.12,7.53.56,10.13,1.9,1.62.84.88,2.95-.59,2.84-.53-.04-1.94-.72-2.59-.92C11.74-.25-3.38,23.27,10.17,38.5c14.42,16.2,41.01,1.46,34.33-20-.22-.69-.84-1.74-.71-2.42.25-1.35,2.05-1.62,2.74-.39,2.34,4.15,2.35,11.32,1.07,15.79-5.33,18.62-30.15,22.77-41.26,6.85C-4.17,23.28,6.19,2.63,24.43,1.88ZM10.53,31.71c5.32,11.84,21.9,12.91,28.68,1.81,1.95-3.19,3.11-8.46,1.96-12.08-.38-1.19-1.94-1.45-2.63-.38-.51.79-.02,1.72.04,2.58.98,13.03-14.65,19.87-23.2,10.24-8.04-9.07-.84-22.96,11.26-22.08,1.03.07,2.26.74,3.07-.24.54-.66.29-1.89-.5-2.23-1.18-.52-4.15-.52-5.47-.42-10.94.86-17.7,12.84-13.22,22.81ZM43.31,7.21l-.15-.15v-4c0-.28-.54-.91-.81-1.04-.8-.39-1.37,0-1.97.51-2.92,2.46-5.53,5.88-8.43,8.44-.26.35-.52.63-.58,1.08-.21,1.51.18,3.36-.06,4.91l-7.01,7.03c-1.13,1.5.6,3.18,2.08,2.08l7.03-7.01c1.54-.22,3.31.12,4.82-.05.37-.04.59-.17.87-.39l9.16-9.16c.2-.24.26-.54.22-.86-.1-.81-.87-1.38-1.69-1.38h-3.5ZM37.56,16.08h-3.12l-.15-.15v-3.12l5.95-5.9v1.8c0,.64.88,1.41,1.51,1.41h1.71l-5.9,5.95ZM17.51,28.92c3.27,6.66,13.05,6.34,15.85-.56.54-1.34,1.55-6.06-1.12-5.51-1.62.34-1.04,1.93-1.19,3.1-.54,4.28-5.89,6.33-9.28,3.68-3.95-3.09-2.26-9.7,2.76-10.3,1.14-.14,2.89.4,3.12-1.27.25-1.83-2.13-1.77-3.32-1.65-5.93.58-9.43,7.19-6.82,12.51Z"/>
</svg>