<?xml version="1.0" encoding="UTF-8"?>
<svg id="Capa_1" data-name="Capa 1" xmlns="http://www.w3.org/2000/svg" xmlns:xlink="http://www.w3.org/1999/xlink" viewBox="0 0 50 50">
  <defs>
    <style>
      .cls-1 {
        fill: url(#Degradado_sin_nombre_10);
      }
    </style>
    <linearGradient id="Degradado_sin_nombre_10" data-name="Degradado sin nombre 10" x1="0" y1="25.04" x2="49.89" y2="25.04" gradientUnits="userSpaceOnUse">
      <stop offset="0" stop-color="#f5c230"/>
      <stop offset="0" stop-color="#ecc440"/>
      <stop offset=".32" stop-color="#fffa8a"/>
      <stop offset=".68" stop-color="#ddac17"/>
      <stop offset="1" stop-color="#ffff95"/>
    </linearGradient>
  </defs>
  <path class="cls-1" d="M24.07,50c-2.69-.27-5.35-2.34-6.34-4.82-.18-.46-.33-1.43-.5-1.74-.11-.2-.59-.41-.81-.65-1.3-1.41-.69-3.52-.83-5.26-2.07-.12-2.08-3.01,0-3.13-.06-.74.11-1.63-.04-2.34-.16-.78-1.34-1.37-1.91-1.89C3.41,20.8,7.32,3.88,20.82.59c17.34-4.23,28.86,17.32,15.35,29.67-.54.49-1.6,1-1.79,1.72s0,1.66-.06,2.41c2.08.12,2.07,3.01,0,3.13-.14,1.72.44,3.78-.79,5.21-.23.27-.75.51-.86.7-.17.3-.32,1.28-.5,1.74-.99,2.49-3.64,4.55-6.34,4.82-.44.05-1.31.05-1.75,0ZM31.19,34.41v-2.58c0-2.11,2.97-3.79,4.24-5.21,7.82-8.76,1.94-22.82-9.74-23.4-12.39-.62-19.51,14.1-11.21,23.4,1.27,1.43,4.24,3.1,4.24,5.21v2.58h12.48ZM31.19,37.52h-12.48v3.12h12.48v-3.12ZM29.34,43.76h-8.77c1.44,4.14,7.33,4.13,8.77,0ZM1.34,18.79c.66.11,2.7.1,3.39.02,2.03-.23,1.9-2.92.2-3.12-.64-.08-3.2-.09-3.78.02-.52.11-.94.69-1.14,1.15v.78c.33.58.62,1.03,1.34,1.15ZM41.24,5.91c-1.08,1.24.15,3.02,1.79,2.48.45-.15,2.47-1.36,2.9-1.68,1.48-1.1.58-3.17-1.13-2.88-.36.06-3.31,1.8-3.57,2.09ZM3.96,6.71c.4.29,2.59,1.59,2.97,1.7,1.65.48,2.81-1.37,1.68-2.56-.27-.28-2.67-1.7-3.09-1.88-.39-.16-.64-.22-1.07-.15-1.39.22-1.68,2.03-.49,2.88ZM41.23,28.61c.2.22,3.03,1.9,3.36,2,1.53.48,2.72-1.28,1.71-2.49-.18-.22-.6-.45-.85-.61-.59-.38-2.48-1.55-3.08-1.54-1.34,0-2.03,1.66-1.14,2.65ZM6.74,26.18c-.46.2-2.88,1.63-3.13,1.94-1.04,1.26.23,3.04,1.85,2.44.37-.14,3-1.71,3.22-1.95.91-1.01.15-2.7-1.21-2.65-.21,0-.53.13-.73.22ZM44.78,18.72c.59.17,3.14.18,3.78.07,1.7-.29,1.73-2.67.27-3.05-.44-.12-3.55-.12-4.03-.02-1.41.29-1.59,2.56-.03,3ZM24.15,7.92c5.06-.45,10.05,3.99,12.67,7.93.39.58.71.95.58,1.71-.12.71-2.03,3-2.61,3.63-5.38,5.94-11.45,7.54-17.84,1.85-1.13-1-3.71-3.74-4.3-5.05s.63-2.46,1.39-3.42c2.39-3.02,6.11-6.3,10.11-6.65ZM24.35,11.04c-3.29.33-6.51,3.61-8.36,6.16-.01.43,2.45,3,2.92,3.42,1.41,1.26,3.5,2.67,5.42,2.86,3.8.38,7.55-3.34,9.59-6.17.01-.44-2.54-3.09-3.02-3.51-1.76-1.56-4.11-3-6.55-2.75ZM24.35,12.6c6.35-.77,7.18,8.9.95,9.33s-6.8-8.62-.95-9.33ZM24.63,15.72c-1.89.31-1.53,3.42.64,3.07,1.89-.31,1.53-3.42-.64-3.07Z"/>
</svg>